# xmcd
#
# Track frame offsets: 
#        150
#        16813
#        34309
#        48447
#        65640
#        83546
#        97084
#        112002
#        128875
#        146680
#        166737
#
# Disc length: 2421 seconds
#
# Revision: 0
# Processed by: cddbd v1.5.2PL0 Copyright (c) Steve Scherf et al.
# Submitted via: ExactAudioCopy v0.99pb4
#
DISCID=9209730b
DTITLE=Carlene Thissen - Spring Rain
DYEAR=2010
DGENRE=Singer-Songwriter
TTITLE0=Spring Rain
TTITLE1=Far From Memphis
TTITLE2=Dance!
TTITLE3=Just for a Moment
TTITLE4=Remember Me
TTITLE5=Clouds Above the Rain
TTITLE6=When You Call
TTITLE7=Take These Hands
TTITLE8=Our Lady of Guadalupe
TTITLE9=Love One Another
TTITLE10=Go Change the World
EXTD=
EXTT0=
EXTT1=
EXTT2=
EXTT3=
EXTT4=
EXTT5=
EXTT6=
EXTT7=
EXTT8=
EXTT9=
EXTT10=
PLAYORDER=
